              ***********************************************

                PublicHash - Largest Bittorrent Community
      
                          http://publichash.com/
    
              ***********************************************

Format                                   : MPEG-4

File size                                : 1.20 GiB
Duration                                 : 1h 21mn
Overall bit rate                         : 2 101 Kbps

Video
ID                                       : 1
Format                                   : AVC
Format/Info                              : Advanced Video Codec
Format profile                           : High@L4.2
Format settings, CABAC                   : Yes
Format settings, ReFrames                : 4 frames
Codec ID                                 : avc1
Codec ID/Info                            : Advanced Video Coding
Duration                                 : 1h 21mn
Bit rate                                 : 1 651 Kbps
Maximum bit rate                         : 4 793 Kbps
Width                                    : 720 pixels
Height                                   : 304 pixels
Display aspect ratio                     : 2.35:1
Frame rate mode                          : Constant
Frame rate                               : 23.976 fps
Color space                              : YUV
Chroma subsampling                       : 4:2:0
Bit depth                                : 8 bits
Scan type                                : Progressive
Bits/(Pixel*Frame)                       : 0.315
Stream size                              : 963 MiB (79%)


Audio
ID                                       : 2
Format                                   : AC-3
Format/Info                              : Audio Coding 3
Mode extension                           : CM (complete main)
Format settings, Endianness              : Big
Codec ID                                 : ac-3
Duration                                 : 1h 21mn
Bit rate mode                            : Constant
Bit rate                                 : 448 Kbps
Channel(s)                               : 6 channels
Channel positions                        : Front: L C R, Side: L R, LFE
Sampling rate                            : 48.0 KHz
Bit depth                                : 16 bits
Compression mode                         : Lossy
Stream size                              : 261 MiB (21%)
Language                                 : English


IMDBhttp://www.imdb.com/title/tt2069798/

source &gt;&gt;&gt;&gt;&gt;&gt;720p Web-DL Webios thanks had nice tones so didn't mess to much with.
english srt included
 
http://imgsure.com/?p=285350 
http://imgsure.com/?p=983891 
http://imgsure.com/?p=595381